Normalized EMG Linear Envelopes
nRows=59
nColumns=17

endheader
time	        VM	        VL	        RF	       GRA	        TA	   ADDLONG	   SEMIMEM	      BFLH	        GM	        GL	       TFL	   GLUTMAX	   GLUTMED	      PIRI	    OBTINT	        QF	
1.335	  0.107571	  0.038231	  0.004719	  0.284951	  0.042712	  0.042693	  0.643601	  0.611329	  0.328558	  0.261346	  0.035801	  0.503777	  0.412827	  0.363693	  0.747836	  0.691199	
1.3355	  0.107400	  0.037767	  0.004442	  0.285596	  0.043856	  0.042639	  0.643900	  0.614866	  0.330950	  0.261087	  0.035900	  0.505212	  0.410404	  0.359808	  0.742891	  0.689384	
1.336	  0.107255	  0.037320	  0.004178	  0.286196	  0.045042	  0.042594	  0.644097	  0.618349	  0.333347	  0.260784	  0.035995	  0.506586	  0.407973	  0.355983	  0.737928	  0.687477	
1.3365	  0.107136	  0.036890	  0.003927	  0.286754	  0.046271	  0.042558	  0.644193	  0.621775	  0.335748	  0.260438	  0.036088	  0.507896	  0.405534	  0.352218	  0.732951	  0.685480	
1.337	  0.107042	  0.036477	  0.003688	  0.287268	  0.047542	  0.042532	  0.644189	  0.625145	  0.338151	  0.260049	  0.036176	  0.509143	  0.403088	  0.348511	  0.727960	  0.683396	
1.3375	  0.106974	  0.036081	  0.003462	  0.287740	  0.048855	  0.042515	  0.644086	  0.628458	  0.340556	  0.259616	  0.036260	  0.510326	  0.400634	  0.344864	  0.722958	  0.681227	
1.338	  0.106932	  0.035702	  0.003247	  0.288172	  0.050208	  0.042507	  0.643886	  0.631713	  0.342961	  0.259139	  0.036340	  0.511443	  0.398172	  0.341276	  0.717947	  0.678977	
1.3385	  0.106914	  0.035342	  0.003045	  0.288563	  0.051603	  0.042508	  0.643591	  0.634908	  0.345365	  0.258619	  0.036416	  0.512493	  0.395702	  0.337747	  0.712929	  0.676648	
1.339	  0.106922	  0.035000	  0.002854	  0.288915	  0.053038	  0.042519	  0.643201	  0.638045	  0.347768	  0.258055	  0.036486	  0.513475	  0.393224	  0.334277	  0.707905	  0.674243	
1.3395	  0.106954	  0.034676	  0.002674	  0.289229	  0.054514	  0.042538	  0.642718	  0.641121	  0.350169	  0.257449	  0.036552	  0.514389	  0.390739	  0.330865	  0.702878	  0.671765	
1.34	  0.107011	  0.034370	  0.002506	  0.289505	  0.056029	  0.042568	  0.642143	  0.644136	  0.352567	  0.256801	  0.036613	  0.515233	  0.388247	  0.327511	  0.697849	  0.669217	
1.3405	  0.107091	  0.034083	  0.002348	  0.289745	  0.057584	  0.042606	  0.641479	  0.647089	  0.354962	  0.256110	  0.036668	  0.516006	  0.385746	  0.324215	  0.692819	  0.666601	
1.341	  0.107196	  0.033814	  0.002202	  0.289950	  0.059177	  0.042654	  0.640727	  0.649980	  0.357354	  0.255377	  0.036717	  0.516707	  0.383239	  0.320977	  0.687790	  0.663919	
1.3415	  0.107325	  0.033564	  0.002066	  0.290119	  0.060810	  0.042711	  0.639887	  0.652807	  0.359742	  0.254603	  0.036761	  0.517335	  0.380725	  0.317795	  0.682763	  0.661173	
1.342	  0.107476	  0.033334	  0.001940	  0.290255	  0.062481	  0.042779	  0.638964	  0.655570	  0.362126	  0.253787	  0.036799	  0.517890	  0.378203	  0.314670	  0.677740	  0.658367	
1.3425	  0.107651	  0.033123	  0.001825	  0.290358	  0.064190	  0.042856	  0.637958	  0.658269	  0.364507	  0.252930	  0.036831	  0.518370	  0.375676	  0.311602	  0.672722	  0.655500	
1.343	  0.107848	  0.032931	  0.001720	  0.290430	  0.065936	  0.042943	  0.636872	  0.660902	  0.366884	  0.252032	  0.036858	  0.518776	  0.373141	  0.308589	  0.667709	  0.652576	
1.3435	  0.108068	  0.032758	  0.001625	  0.290471	  0.067720	  0.043040	  0.635707	  0.663471	  0.369258	  0.251094	  0.036878	  0.519106	  0.370601	  0.305631	  0.662704	  0.649596	
1.344	  0.108309	  0.032606	  0.001539	  0.290485	  0.069541	  0.043147	  0.634466	  0.665973	  0.371628	  0.250116	  0.036893	  0.519359	  0.368054	  0.302729	  0.657708	  0.646560	
1.3445	  0.108571	  0.032473	  0.001463	  0.290472	  0.071399	  0.043264	  0.633150	  0.668410	  0.373995	  0.249099	  0.036902	  0.519535	  0.365501	  0.299882	  0.652721	  0.643472	
1.345	  0.108854	  0.032360	  0.001397	  0.290434	  0.073293	  0.043392	  0.631761	  0.670780	  0.376359	  0.248044	  0.036905	  0.519633	  0.362941	  0.297091	  0.647746	  0.640331	
1.3455	  0.109158	  0.032267	  0.001339	  0.290375	  0.075223	  0.043530	  0.630301	  0.673082	  0.378720	  0.246952	  0.036903	  0.519652	  0.360375	  0.294354	  0.642782	  0.637141	
1.346	  0.109482	  0.032194	  0.001291	  0.290294	  0.077189	  0.043678	  0.628772	  0.675316	  0.381079	  0.245824	  0.036894	  0.519591	  0.357802	  0.291672	  0.637833	  0.633902	
1.3465	  0.109825	  0.032141	  0.001252	  0.290196	  0.079190	  0.043837	  0.627178	  0.677481	  0.383435	  0.244662	  0.036880	  0.519449	  0.355221	  0.289045	  0.632899	  0.630619	
1.347	  0.110188	  0.032109	  0.001221	  0.290081	  0.081227	  0.044006	  0.625520	  0.679575	  0.385789	  0.243467	  0.036860	  0.519226	  0.352633	  0.286472	  0.627983	  0.627292	
1.3475	  0.110569	  0.032097	  0.001199	  0.289951	  0.083297	  0.044187	  0.623802	  0.681599	  0.388140	  0.242240	  0.036834	  0.518920	  0.350036	  0.283954	  0.623086	  0.623924	
1.348	  0.110968	  0.032105	  0.001185	  0.289809	  0.085403	  0.044377	  0.622028	  0.683551	  0.390487	  0.240983	  0.036802	  0.518531	  0.347430	  0.281490	  0.618209	  0.620517	
1.3485	  0.111386	  0.032134	  0.001180	  0.289656	  0.087542	  0.044579	  0.620199	  0.685432	  0.392832	  0.239696	  0.036764	  0.518058	  0.344815	  0.279079	  0.613355	  0.617073	
1.349	  0.111820	  0.032184	  0.001183	  0.289494	  0.089715	  0.044791	  0.618319	  0.687242	  0.395173	  0.238380	  0.036720	  0.517501	  0.342190	  0.276723	  0.608525	  0.613595	
1.3495	  0.112271	  0.032254	  0.001193	  0.289325	  0.091922	  0.045014	  0.616393	  0.688983	  0.397511	  0.237038	  0.036671	  0.516858	  0.339555	  0.274420	  0.603720	  0.610084	
1.35	  0.112739	  0.032345	  0.001212	  0.289150	  0.094162	  0.045249	  0.614422	  0.690654	  0.399844	  0.235670	  0.036615	  0.516131	  0.336909	  0.272170	  0.598942	  0.606542	
1.3505	  0.113222	  0.032457	  0.001238	  0.288972	  0.096435	  0.045494	  0.612411	  0.692255	  0.402173	  0.234277	  0.036554	  0.515319	  0.334254	  0.269971	  0.594191	  0.602972	
1.351	  0.113720	  0.032589	  0.001272	  0.288791	  0.098740	  0.045750	  0.610361	  0.693789	  0.404498	  0.232860	  0.036488	  0.514422	  0.331587	  0.267825	  0.589468	  0.599375	
1.3515	  0.114233	  0.032742	  0.001314	  0.288611	  0.101077	  0.046018	  0.608277	  0.695255	  0.406816	  0.231422	  0.036416	  0.513441	  0.328911	  0.265730	  0.584776	  0.595754	
1.352	  0.114761	  0.032916	  0.001363	  0.288433	  0.103446	  0.046298	  0.606162	  0.696654	  0.409129	  0.229963	  0.036338	  0.512375	  0.326223	  0.263684	  0.580114	  0.592109	
1.3525	  0.115302	  0.033111	  0.001419	  0.288257	  0.105847	  0.046589	  0.604017	  0.697987	  0.411436	  0.228484	  0.036255	  0.511226	  0.323526	  0.261688	  0.575483	  0.588444	
1.353	  0.115857	  0.033327	  0.001482	  0.288087	  0.108278	  0.046892	  0.601847	  0.699255	  0.413736	  0.226987	  0.036167	  0.509994	  0.320818	  0.259741	  0.570885	  0.584760	
1.3535	  0.116426	  0.033564	  0.001553	  0.287923	  0.110739	  0.047207	  0.599654	  0.700457	  0.416029	  0.225473	  0.036074	  0.508678	  0.318100	  0.257842	  0.566322	  0.581060	
1.354	  0.117007	  0.033822	  0.001630	  0.287767	  0.113230	  0.047535	  0.597441	  0.701595	  0.418316	  0.223943	  0.035976	  0.507280	  0.315372	  0.255989	  0.561794	  0.577345	
1.3545	  0.117601	  0.034100	  0.001715	  0.287620	  0.115750	  0.047876	  0.595210	  0.702668	  0.420594	  0.222400	  0.035872	  0.505799	  0.312633	  0.254183	  0.557303	  0.573619	
1.355	  0.118207	  0.034400	  0.001806	  0.287484	  0.118298	  0.048229	  0.592965	  0.703676	  0.422865	  0.220844	  0.035764	  0.504237	  0.309884	  0.252422	  0.552852	  0.569884	
1.3555	  0.118825	  0.034720	  0.001904	  0.287360	  0.120875	  0.048595	  0.590707	  0.704619	  0.425128	  0.219277	  0.035651	  0.502592	  0.307125	  0.250705	  0.548442	  0.566142	
1.356	  0.119455	  0.035062	  0.002009	  0.287249	  0.123479	  0.048974	  0.588440	  0.705496	  0.427382	  0.217700	  0.035534	  0.500865	  0.304356	  0.249033	  0.544074	  0.562396	
1.3565	  0.120095	  0.035424	  0.002120	  0.287152	  0.126110	  0.049367	  0.586165	  0.706308	  0.429627	  0.216113	  0.035411	  0.499057	  0.301577	  0.247404	  0.539751	  0.558650	
1.357	  0.120747	  0.035807	  0.002238	  0.287071	  0.128767	  0.049773	  0.583883	  0.707053	  0.431863	  0.214519	  0.035284	  0.497168	  0.298791	  0.245818	  0.535473	  0.554904	
1.3575	  0.121409	  0.036211	  0.002362	  0.287007	  0.131449	  0.050193	  0.581599	  0.707731	  0.434089	  0.212918	  0.035152	  0.495199	  0.295996	  0.244273	  0.531242	  0.551162	
1.358	  0.122081	  0.036635	  0.002493	  0.286959	  0.134157	  0.050627	  0.579313	  0.708342	  0.436304	  0.211312	  0.035015	  0.493150	  0.293194	  0.242769	  0.527058	  0.547427	
1.3585	  0.122763	  0.037080	  0.002629	  0.286930	  0.136889	  0.051075	  0.577027	  0.708884	  0.438507	  0.209700	  0.034875	  0.491022	  0.290386	  0.241307	  0.522923	  0.543700	
1.359	  0.123455	  0.037546	  0.002772	  0.286921	  0.139644	  0.051537	  0.574743	  0.709358	  0.440698	  0.208085	  0.034729	  0.488817	  0.287573	  0.239883	  0.518838	  0.539985	
1.3595	  0.124156	  0.038031	  0.002921	  0.286931	  0.142422	  0.052013	  0.572464	  0.709763	  0.442876	  0.206466	  0.034580	  0.486535	  0.284755	  0.238499	  0.514802	  0.536283	
1.36	  0.124867	  0.038538	  0.003076	  0.286963	  0.145223	  0.052504	  0.570189	  0.710099	  0.445040	  0.204845	  0.034426	  0.484179	  0.281934	  0.237154	  0.510817	  0.532597	
1.3605	  0.125587	  0.039064	  0.003237	  0.287016	  0.148044	  0.053011	  0.567922	  0.710366	  0.447189	  0.203222	  0.034269	  0.481749	  0.279110	  0.235846	  0.506882	  0.528928	
1.361	  0.126315	  0.039611	  0.003404	  0.287093	  0.150886	  0.053532	  0.565664	  0.710563	  0.449322	  0.201599	  0.034107	  0.479247	  0.276284	  0.234574	  0.502999	  0.525280	
1.3615	  0.127052	  0.040177	  0.003576	  0.287192	  0.153748	  0.054068	  0.563416	  0.710692	  0.451438	  0.199975	  0.033942	  0.476676	  0.273457	  0.233339	  0.499168	  0.521653	
1.362	  0.127798	  0.040764	  0.003755	  0.287317	  0.156629	  0.054620	  0.561180	  0.710750	  0.453536	  0.198352	  0.033773	  0.474036	  0.270630	  0.232140	  0.495390	  0.518051	
1.3625	  0.128551	  0.041370	  0.003939	  0.287466	  0.159528	  0.055188	  0.558957	  0.710740	  0.455616	  0.196730	  0.033601	  0.471330	  0.267804	  0.230975	  0.491665	  0.514475	
1.363	  0.129312	  0.041996	  0.004128	  0.287641	  0.162443	  0.055771	  0.556750	  0.710660	  0.457675	  0.195110	  0.033425	  0.468559	  0.264979	  0.229844	  0.487995	  0.510927	
1.3635	  0.130081	  0.042641	  0.004323	  0.287843	  0.165375	  0.056370	  0.554558	  0.710514	  0.459713	  0.193493	  0.033246	  0.465724	  0.262157	  0.228747	  0.484380	  0.507411	
1.364	  0.130856	  0.043306	  0.004524	  0.288071	  0.168322	  0.056986	  0.552385	  0.710300	  0.461729	  0.191880	  0.033064	  0.462828	  0.259339	  0.227682	  0.480821	  0.503928	
